<svg xmlns="http://www.w3.org/2000/svg" width="3.778in" height="2.833in" viewBox="0 0 272 204"><defs><style>.a{fill:#d2fffa;}.b{fill:#7bfff0;}.c{fill:#3a36e4;}.d{fill:#fff;}</style></defs><rect class="a" width="272" height="204"/><rect class="b" x="167.458" y="92.942" width="79.173" height="79.173" rx="18.16"/><path class="c" d="M228.47,173.615H185.619a19.684,19.684,0,0,1-19.662-19.661V111.1a19.685,19.685,0,0,1,19.662-19.662H228.47A19.684,19.684,0,0,1,248.131,111.1v42.851A19.683,19.683,0,0,1,228.47,173.615ZM185.619,94.441A16.681,16.681,0,0,0,168.957,111.1v42.851a16.681,16.681,0,0,0,16.662,16.661H228.47a16.68,16.68,0,0,0,16.661-16.661V111.1A16.681,16.681,0,0,0,228.47,94.441Z"/><circle class="d" cx="193.495" cy="120.084" r="8.912"/><path class="c" d="M193.494,130.5a10.413,10.413,0,1,1,10.413-10.413A10.424,10.424,0,0,1,193.494,130.5Zm0-17.825a7.413,7.413,0,1,0,7.413,7.412A7.421,7.421,0,0,0,193.494,112.672Z"/><rect class="d" x="212.819" y="111.822" width="15.277" height="15.277"/><path class="c" d="M228.1,128.6H212.819a1.5,1.5,0,0,1-1.5-1.5V111.821a1.5,1.5,0,0,1,1.5-1.5H228.1a1.5,1.5,0,0,1,1.5,1.5V127.1A1.5,1.5,0,0,1,228.1,128.6Zm-13.777-3H226.6V113.321H214.319Z"/><polygon class="d" points="225.294 137.071 215.621 137.071 210.785 145.448 215.621 153.824 225.294 153.824 230.13 145.448 225.294 137.071"/><path class="c" d="M225.293,155.324h-9.672a1.5,1.5,0,0,1-1.3-.75l-4.836-8.377a1.5,1.5,0,0,1,0-1.5l4.836-8.376a1.5,1.5,0,0,1,1.3-.75h9.672a1.5,1.5,0,0,1,1.3.75l4.837,8.376a1.5,1.5,0,0,1,0,1.5l-4.837,8.377A1.5,1.5,0,0,1,225.293,155.324Zm-8.805-3h7.939l3.971-6.877-3.971-6.876h-7.939l-3.97,6.876Z"/><polygon class="d" points="193.398 137.535 183.959 153.885 202.838 153.885 193.398 137.535"/><path class="c" d="M202.837,155.385H183.959a1.5,1.5,0,0,1-1.3-2.25l9.438-16.35a1.5,1.5,0,0,1,2.6,0l9.439,16.35a1.5,1.5,0,0,1-1.3,2.25Zm-16.28-3H200.24l-6.842-11.85Z"/><rect class="b" x="30.369" y="33.885" width="79.173" height="79.173" rx="18.16"/><path class="c" d="M91.382,114.559H48.53A19.684,19.684,0,0,1,28.869,94.9V52.046A19.683,19.683,0,0,1,48.53,32.385H91.382a19.683,19.683,0,0,1,19.66,19.661V94.9A19.683,19.683,0,0,1,91.382,114.559ZM48.53,35.385A16.68,16.68,0,0,0,31.869,52.046V94.9A16.681,16.681,0,0,0,48.53,111.559H91.382A16.68,16.68,0,0,0,108.042,94.9V52.046a16.679,16.679,0,0,0-16.66-16.661Z"/><path class="c" d="M69.955,93.11a1.5,1.5,0,0,1-1.5-1.5V56.116a1.5,1.5,0,0,1,3,0V91.61A1.5,1.5,0,0,1,69.955,93.11Z"/><path class="c" d="M78.2,93.11H61.711a1.5,1.5,0,0,1,0-3H78.2a1.5,1.5,0,0,1,0,3Z"/><path class="c" d="M88.094,63.429a1.5,1.5,0,0,1-1.5-1.5v-5.1H53.318v5.1a1.5,1.5,0,0,1-3,0v-6.6a1.5,1.5,0,0,1,1.5-1.5H88.094a1.5,1.5,0,0,1,1.5,1.5v6.6A1.5,1.5,0,0,1,88.094,63.429Z"/><rect class="b" x="99.886" y="64.386" width="77.228" height="77.228" rx="14.647"/><path class="c" d="M162.466,143.114H114.534a16.166,16.166,0,0,1-16.148-16.147V79.033a16.166,16.166,0,0,1,16.148-16.147h47.932a16.167,16.167,0,0,1,16.148,16.147v47.934A16.167,16.167,0,0,1,162.466,143.114ZM114.534,65.886a13.162,13.162,0,0,0-13.148,13.147v47.934a13.162,13.162,0,0,0,13.148,13.147h47.932a13.162,13.162,0,0,0,13.148-13.147V79.033a13.162,13.162,0,0,0-13.148-13.147Z"/><polygon class="d" points="144.476 133.799 169.299 133.799 169.299 108.976 144.476 133.799"/></svg>