<svg xmlns="http://www.w3.org/2000/svg" width="3.778in" height="2.833in" viewBox="0 0 272 204"><defs><style>.a{fill:#ffe9e4;}.b{fill:#ffd1c7;}.c{fill:#fff;}.d{fill:#3a36e4;}</style></defs><rect class="a" width="272" height="204"/><rect class="b" x="28.628" y="19.327" width="69.07" height="79.114"/><rect class="b" x="110.465" y="28.326" width="18.981" height="61.116"/><rect class="c" x="37.628" y="28.326" width="51.07" height="61.116"/><rect class="b" x="37.628" y="111.698" width="51.07" height="61.116"/><rect class="b" x="183.302" y="111.698" width="51.07" height="61.116"/><rect class="c" x="183.302" y="28.326" width="51.07" height="61.116"/><rect class="b" x="37.628" y="28.326" width="51.07" height="21.171"/><rect class="b" x="110.465" y="111.698" width="51.07" height="61.116"/><path class="c" d="M153.535,119.7v45.116h-35.07V119.7h35.07m8-8h-51.07v61.116h51.07V111.7Z"/><circle class="c" cx="208.837" cy="142.256" r="20.795"/><path class="d" d="M88.7,90.941H37.628a1.5,1.5,0,0,1-1.5-1.5V28.326a1.5,1.5,0,0,1,1.5-1.5H88.7a1.5,1.5,0,0,1,1.5,1.5V89.441A1.5,1.5,0,0,1,88.7,90.941Zm-49.57-3H87.2V29.826H39.128Z"/><path class="d" d="M161.535,90.941h-51.07a1.5,1.5,0,0,1-1.5-1.5V28.326a1.5,1.5,0,0,1,1.5-1.5h51.07a1.5,1.5,0,0,1,1.5,1.5V89.441A1.5,1.5,0,0,1,161.535,90.941Zm-49.57-3h48.07V29.826h-48.07Z"/><path class="d" d="M234.371,90.941H183.3a1.5,1.5,0,0,1-1.5-1.5V28.326a1.5,1.5,0,0,1,1.5-1.5h51.069a1.5,1.5,0,0,1,1.5,1.5V89.441A1.5,1.5,0,0,1,234.371,90.941Zm-49.569-3h48.069V29.826H184.8Z"/><path class="d" d="M88.7,174.313H37.628a1.5,1.5,0,0,1-1.5-1.5V111.7a1.5,1.5,0,0,1,1.5-1.5H88.7a1.5,1.5,0,0,1,1.5,1.5v61.116A1.5,1.5,0,0,1,88.7,174.313Zm-49.57-3H87.2V113.2H39.128Z"/><path class="d" d="M161.535,174.313h-51.07a1.5,1.5,0,0,1-1.5-1.5V111.7a1.5,1.5,0,0,1,1.5-1.5h51.07a1.5,1.5,0,0,1,1.5,1.5v61.116A1.5,1.5,0,0,1,161.535,174.313Zm-49.57-3h48.07V113.2h-48.07Z"/><path class="d" d="M234.371,174.313H183.3a1.5,1.5,0,0,1-1.5-1.5V111.7a1.5,1.5,0,0,1,1.5-1.5h51.069a1.5,1.5,0,0,1,1.5,1.5v61.116A1.5,1.5,0,0,1,234.371,174.313Zm-49.569-3h48.069V113.2H184.8Z"/><path class="d" d="M78.233,63.384H48.093a1.5,1.5,0,0,1,0-3h30.14a1.5,1.5,0,0,1,0,3Z"/><path class="d" d="M78.233,70.183H48.093a1.5,1.5,0,0,1,0-3h30.14a1.5,1.5,0,0,1,0,3Z"/><path class="d" d="M78.233,76.98H48.093a1.5,1.5,0,0,1,0-3h30.14a1.5,1.5,0,0,1,0,3Z"/><path class="d" d="M221.407,136.957h-25.14a1.5,1.5,0,0,1,0-3h25.14a1.5,1.5,0,1,1,0,3Z"/><path class="d" d="M223.907,143.756h-30.14a1.5,1.5,0,0,1,0-3h30.14a1.5,1.5,0,0,1,0,3Z"/><path class="d" d="M218.907,150.555h-20.14a1.5,1.5,0,0,1,0-3h20.14a1.5,1.5,0,0,1,0,3Z"/><path class="d" d="M152.07,41.2H137a1.5,1.5,0,0,1,0-3h15.07a1.5,1.5,0,0,1,0,3Z"/><path class="d" d="M152.07,48H137a1.5,1.5,0,0,1,0-3h15.07a1.5,1.5,0,0,1,0,3Z"/><path class="d" d="M152.07,54.8H137a1.5,1.5,0,0,1,0-3h15.07a1.5,1.5,0,0,1,0,3Z"/><path class="d" d="M152.07,67.1H137a1.5,1.5,0,0,1,0-3h15.07a1.5,1.5,0,0,1,0,3Z"/><path class="d" d="M152.07,73.9H137a1.5,1.5,0,0,1,0-3h15.07a1.5,1.5,0,0,1,0,3Z"/><path class="d" d="M152.07,80.694H137a1.5,1.5,0,0,1,0-3h15.07a1.5,1.5,0,0,1,0,3Z"/><path class="d" d="M119.955,81.694a1.5,1.5,0,0,1-1.5-1.5V58.884a1.5,1.5,0,0,1,3,0v21.31A1.5,1.5,0,0,1,119.955,81.694Z"/><path class="b" d="M224.888,80.9h-32.1a1.5,1.5,0,0,1-1.5-1.5V38.367a1.5,1.5,0,0,1,1.5-1.5h32.1a1.5,1.5,0,0,1,1.5,1.5V79.4A1.5,1.5,0,0,1,224.888,80.9Zm-30.6-3h29.1V39.867h-29.1Z"/><rect class="c" x="44.744" y="118.814" width="16.548" height="17.127"/><rect class="c" x="65.209" y="118.814" width="16.548" height="17.127"/><rect class="c" x="44.744" y="139.811" width="16.548" height="17.127"/><rect class="c" x="65.209" y="139.811" width="16.548" height="17.127"/><path class="d" d="M80,165.461H46.33a1.5,1.5,0,1,1,0-3H80a1.5,1.5,0,0,1,0,3Z"/></svg>