<svg xmlns="http://www.w3.org/2000/svg" width="3.778in" height="2.833in" viewBox="0 0 272 204"><defs><style>.a{fill:#fef9db;}.b{fill:#fff;}.c{fill:#fff493;}.d{fill:#3a36e4;}</style></defs><rect class="a" width="272" height="204"/><rect class="b" x="73.645" y="47.224" width="140.323" height="113.09"/><path class="c" d="M76.812,119.766l28.877-27.717a9.911,9.911,0,0,1,14.156.44l26.072,28.34a9.911,9.911,0,0,0,13.677.87l18.349-15.451a9.91,9.91,0,0,1,13.332.514l19.689,19.361a9.909,9.909,0,0,1,2.962,7.066V159.73a.583.583,0,0,1-.583.583H73.645l.119-33.433A9.9,9.9,0,0,1,76.812,119.766Z"/><circle class="c" cx="153.829" cy="85.14" r="10.023"/><path class="a" d="M180.021,89.427a3.908,3.908,0,0,1-3.872-4.441,14.928,14.928,0,0,1,3.066-7.523c3.511-4.228,12.918-6.325,17.736.4.352-6.519,4.772-13.771,14.891-12.13,6.073.985,8.834,6.644,9.064,10.98,6.217-6.608,14.52-.823,15.923,5.31a10.748,10.748,0,0,1,.15,4.2,3.883,3.883,0,0,1-3.846,3.209Z"/><path class="a" d="M62.971,133.585a4.479,4.479,0,0,1-4.618-4.972,16.176,16.176,0,0,1,3.657-8.423c4.187-4.734,15.407-7.081,21.153.448.42-7.3,5.691-15.417,17.759-13.58,7.242,1.1,10.536,7.438,10.81,12.293,7.415-7.4,17.317-.921,18.99,5.945a11.312,11.312,0,0,1,.179,4.7,4.56,4.56,0,0,1-4.587,3.592Z"/><path class="d" d="M213.967,161.813H73.645a1.5,1.5,0,0,1-1.5-1.5V47.224a1.5,1.5,0,0,1,1.5-1.5H213.967a1.5,1.5,0,0,1,1.5,1.5V160.313A1.5,1.5,0,0,1,213.967,161.813Zm-138.822-3H212.467V48.724H75.145Z"/><rect class="b" x="30.097" y="74.688" width="73.884" height="62.857" rx="6.707"/><path class="d" d="M97.274,139.046H36.805a8.217,8.217,0,0,1-8.208-8.208V81.4a8.217,8.217,0,0,1,8.208-8.208H97.274a8.217,8.217,0,0,1,8.207,8.208v49.442A8.217,8.217,0,0,1,97.274,139.046ZM36.805,76.188A5.214,5.214,0,0,0,31.6,81.4v49.442a5.214,5.214,0,0,0,5.208,5.208H97.274a5.213,5.213,0,0,0,5.207-5.208V81.4a5.213,5.213,0,0,0-5.207-5.208Z"/><path class="d" d="M94.43,109.717H39.648a1.5,1.5,0,0,1,0-3H94.43a1.5,1.5,0,0,1,0,3Z"/><path class="d" d="M94.43,98.276H39.648a1.5,1.5,0,0,1,0-3H94.43a1.5,1.5,0,0,1,0,3Z"/><circle class="c" cx="69.81" cy="97.132" r="3.552"/><path class="d" d="M69.81,102.184a5.052,5.052,0,1,1,5.052-5.052A5.059,5.059,0,0,1,69.81,102.184Zm0-7.1a2.052,2.052,0,1,0,2.052,2.052A2.055,2.055,0,0,0,69.81,95.08Z"/><circle class="c" cx="55.146" cy="108.217" r="3.552"/><path class="d" d="M55.147,113.269a5.052,5.052,0,1,1,5.051-5.052A5.059,5.059,0,0,1,55.147,113.269Zm0-7.1a2.052,2.052,0,1,0,2.051,2.052A2.055,2.055,0,0,0,55.147,106.165Z"/><rect class="d" x="30.097" y="83.633" width="73.884" height="3"/><rect class="c" x="69.81" y="119.083" width="26.534" height="10.242" rx="4.326"/><rect class="a" x="38.328" y="118.773" width="26.534" height="10.242" rx="4.326"/><path class="d" d="M81.969,127.643h-.047a1.5,1.5,0,0,1-1.166-.617l-1.123-1.542a1.5,1.5,0,0,1,2.412-1.783l2.107-2.541a1.5,1.5,0,0,1,2.309,1.914L83.123,127.1A1.5,1.5,0,0,1,81.969,127.643Z"/><path class="d" d="M53.414,127.333a1.5,1.5,0,0,1-1.06-.439l-3.665-3.665a1.5,1.5,0,0,1,2.121-2.122l3.665,3.665a1.5,1.5,0,0,1-1.061,2.561Z"/><path class="d" d="M49.762,127.333a1.5,1.5,0,0,1-1.06-2.561l3.665-3.665a1.5,1.5,0,0,1,2.121,2.122l-3.665,3.665A1.5,1.5,0,0,1,49.762,127.333Z"/></svg>